<svg xmlns="http://www.w3.org/2000/svg" xmlns:xlink="http://www.w3.org/1999/xlink" width="900.864" height="507.772" viewBox="0 0 900.864 507.772"><polygon fill="#a0616a" points="344.181 110.421 349.792 89.846 324.541 80.494 321.735 99.198 344.181 110.421"/><polygon points="344.181 111.421 349.792 90.846 334.921 84.574 339.542 108.83 344.181 111.421" opacity=".1"/><g><path fill="#a0616a" d="M470.58055,219.47186c3.01618-4.73278-.56766-12.4116-8.005-17.15142-3.25557-2.0748-6.70983-3.24211-9.81794-3.50222l-4.31162-2.67242-56.93845-38.5603s-38.58027-43.98488-46.99324-47.41462c-8.41284-3.42975-15.39568,1.89501-15.39568,1.89501l-3.77777,9.51815,60.49893,59.34809,51.4826,27.23838,7.00958,3.8687c1.54849,2.70742,4.06542,5.34548,7.32109,7.42002,7.43721,4.73982,15.91133,4.7454,18.92751,.01262Z"/><path fill="#e6e6e6" d="M323.81574,89.3831s-9.7012,4.4262-11.98095,14.84288c-2.27976,10.41668,71.14751,77.88299,71.14751,77.88299l25.16233-13.81423-84.32889-78.91163Z"/></g><path fill="#a0616a" d="M368.9643,67.93315c0,14.46233-11.72403,26.18636-26.18636,26.18636-14.46233,0-26.18636-11.72403-26.18636-26.18636,0-14.46233,11.72403-26.18636,26.18636-26.18636,14.46233,0,26.18636,11.72403,26.18636,26.18636Z"/><polygon fill="#a0616a" points="404.035 448.103 421.805 492.059 432.092 481.771 435.833 462.131 420.869 443.427 404.035 448.103"/><polygon fill="#a0616a" points="303.172 439.166 295.283 465.182 309.808 477.151 325.764 466.995 323.683 439.267 303.172 439.166"/><polygon fill="#a0616a" points="355.871 186.707 358.209 224.584 300.225 214.296 303.966 190.916 355.871 186.707"/><path fill="#2f2e41" d="M358.6768,225.05129l-58.45169-19.17215s-21.51022,43.02044,1.87045,70.14203c23.38068,27.12158,101.00452,181.43405,101.00452,181.43405l23.38068-11.22272-33.66817-98.19884-37.40908-90.71702,3.27329-32.26533Z"/><polygon fill="#2f2e41" points="292.306 255.704 311.648 354.561 299.658 442.774 327.574 445.725 350.966 337.1 342.536 265.12 292.306 255.704"/><path fill="#2f2e41" d="M444.25007,458.39044h16.1971s18.89969-7.48182,23.32913,0c4.42944,7.48182-19.76311,28.70116-19.76311,28.70116,0,0-33.79152,18.99542-38.46766,18.06019s-6.54659-12.15795-6.54659-12.15795l-5.61136-13.09318,8.41704,2.80568s11.22272-6.54659,8.41704-17.76931l14.02841-6.54659Z"/><path fill="#2f2e41" d="M299.84068,466.22823l-3.79582-8.54732-6.14129,12.96033s-13.90253,13.33715,4.61218,20.46441c18.51471,7.12726,40.82793,13.59093,40.82793,13.59093,0,0,28.67862-4.54959,26.97185-13.00134-1.70677-8.45175-4.79857-10.8053-4.79857-10.8053l-11.43596-.40449-18.41645-18.42723-12.91655,7.78277-14.90734-3.61276Z"/><path fill="#2f2e41" d="M334.82851,73.07689l8.41704-.93523,15.43125-15.43125s14.02841,7.48182,14.02841,1.87045c0-26.18636-15.89886-25.25113-28.99204-27.12158-13.09318-1.87045-11.69034-2.33807-15.89886,4.67614-1.92468,3.2078-8.88466,5.14375-8.88466,5.14375,0,0-13.09318-17.76931-19.63977,3.74091-6.54659,21.51022,1.87045,87.91134-4.67614,93.5227-6.54659,5.61136,26.88026,11.21441,23.26001-10.75927-3.62025-21.97368-10.16684-55.64185-6.42593-63.12367,3.74091-7.48182,4.67614-5.61136,4.67614-5.61136-4.63601-1.89283-7.66511,31.44769,9.81458,33.08012l.47292-16.24603s2.80568-8.41704,8.41704-2.80568Z"/><path fill="#e6e6e6" d="M346.51885,105.34223l-28.05681-11.22272-37.40908,112.22725,76.96929-2.80373,6.93025-33.49622s6.7664-17.43351,1.15504-27.72101c-5.61136-10.2875-19.58869-36.98355-19.58869-36.98355Z"/><g><path fill="#a0616a" d="M273.5106,293.33728c5.59159,.48027,10.73621-6.25332,11.49096-15.04025,.3304-3.84634-.23547-7.44833-1.44494-10.32326l.37075-5.05909,7.79289-68.3239s14.50685-55.88806,13.6486-64.93265c-.85818-9.04448-2.21352-11.4457-2.21352-11.4457l-10.18525,1.06185-24.56555,81.11011-.28705,58.2435-.18094,8.00427c-1.68191,2.62661-2.85369,6.07933-3.18381,9.92565-.75481,8.78682,3.16627,16.2992,8.75786,16.77947Z"/><path fill="#e6e6e6" d="M320.8001,103.00416s-8.41704-6.54659-18.70454-3.74091c-10.2875,2.80568-36.05779,99.13407-36.05779,99.13407l23.89984,15.89886,30.86249-111.29202Z"/></g><g><polygon fill="#ffb6b6" points="883.113 79.388 866.707 48.921 843.857 67.084 852.646 89.934 883.113 79.388"/><polygon points="883.113 79.388 866.707 48.921 843.857 67.084 852.646 89.934 883.113 79.388" opacity=".1"/><circle cx="843.917" cy="40.732" r="27.291" fill="#ffb6b6"/><g><path id="uuid-3dc7f3b0-930d-4ec2-8f7c-5a97dd96fd74-414" fill="#ffb6b6" d="M791.77979,54.94692c-2.17258-7.79077-7.95347-12.98483-12.91134-11.60137-4.95787,1.38346-7.21453,8.81969-5.04013,16.61294,.82588,3.125,2.38813,6.00678,4.55606,8.40422l9.6222,32.89355,15.33973-4.84443-11.11438-31.91289c.6143-3.17444,.45927-6.44984-.45214-9.55203Z"/><path fill="#e6e6e6" d="M869.51778,75.12537l-49.68809,37.19752-24.99209-38.99337-16.5003-.27645s2.22908,64.82571,25.24896,70.30258c23.01988,5.47687,86.23908-25.24244,88.42895-44.29179,2.18988-19.04935-22.49744-23.93848-22.49744-23.93848Z"/></g><g><polygon fill="#ffb6b6" points="801.01 497.672 786.72 497.671 779.921 442.549 801.013 442.551 801.01 497.672"/><path fill="#2f2e41" d="M752.04866,497.34815h0c-.44496,.7494-.67974,3.16811-.67974,4.0396h0c0,2.67872,2.1715,4.8503,4.8503,4.8503h44.25646c1.82741,0,3.3089-1.4814,3.3089-3.3089v-1.84254s2.18932-5.53779-2.31811-12.36341c0,0-5.60213,5.34457-13.97316-3.02646l-2.46854-4.47195-17.86885,13.06837-9.90443,1.21914c-2.16689,.2667-4.08803-.04139-5.20265,1.83584h-.00017Z"/></g><g><polygon fill="#ffb6b6" points="845.754 497.672 831.463 497.671 824.665 442.549 845.757 442.551 845.754 497.672"/><path fill="#2f2e41" d="M796.79257,497.34815h0c-.44496,.7494-.67974,3.16811-.67974,4.0396h0c0,2.67872,2.1715,4.8503,4.8503,4.8503h44.25646c1.82741,0,3.3089-1.4814,3.3089-3.3089v-1.84254s2.18932-5.53779-2.31811-12.36341c0,0-5.60213,5.34457-13.97316-3.02646l-2.46854-4.47195-17.86885,13.06837-9.90443,1.21914c-2.16689,.2667-4.08803-.04139-5.20265,1.83584h-.00017Z"/></g><path fill="#2f2e41" d="M783.3231,222.22802l-13.01225,36.67776,9.1145,210.42829,23.20054,1.65718,17.40041-155.7413,2.48577,161.54143,25.68632,1.65718,18.86485-244.76295s5.86352-17.39623-12.36548-25.68214c-18.229-8.28591-71.37466,14.22454-71.37466,14.22454Z"/><path fill="#e6e6e6" d="M779.49337,220.10083l90.14362,8.69174s-2.92951-35.74003,21.67838-73.23777c24.60789-37.49774-9.37444-82.61221-9.37444-82.61221l-33.39643-2.34361-36.32594,16.40526-6.03152,68.68376-26.69369,64.41283Z"/><path fill="#2f2e41" d="M871.9806,63.56815s16.40526-30.46691,4.68722-43.35676c-11.71804-12.88985-19.33477-25.19379-33.39643-18.16297-14.06165,7.03083-45.11447,26.3656-33.39643,31.05282,11.71804,4.68722,22.26428,3.51541,22.26428,3.51541,0,0-1.84502,8.75658,4.35061,11.99502,6.19563,3.23844,10.29694,8.51156,10.29694,8.51156,0,0,7.03083-8.20263,10.54624-3.51541,3.51541,4.68722,14.64755,9.96034,14.64755,9.96034Z"/><path fill="#2f2e41" d="M791.712,68.84127l-33.98233,19.92067s-7.31686,13.77562,12.45388,23.00012l36.176-24.75783,9.82424,8.65244,13.02594-8.06654-9.37444-29.29511-10.54624-8.20263-9.37444,1.1718-7.03083-4.68722-14.06165,15.23346,12.88985,7.03083Z"/><g><path id="uuid-379f57e5-a8a0-4df7-80a8-31866b6f202a-415" fill="#ffb6b6" d="M800.4907,76.75422c-2.17258-7.79077-7.95347-12.98483-12.91134-11.60137-4.95787,1.38346-7.21453,8.81969-5.04013,16.61294,.82588,3.125,2.38813,6.00678,4.55606,8.40422l9.6222,32.89355,15.33973-4.84443-11.11438-31.91289c.6143-3.17444,.45927-6.44984-.45214-9.55203Z"/><path fill="#e6e6e6" d="M878.22869,96.93267l-49.68809,37.19752-24.99209-38.99337-16.5003-.27645s2.22908,64.82571,25.24896,70.30258c23.01988,5.47687,86.23908-25.24244,88.42895-44.29179,2.18988-19.04935-22.49744-23.93848-22.49744-23.93848Z"/></g></g><path fill="#e6e6e6" d="M167.53619,332.45219c0,3.69849-8.98206-69.74268-8.98206-69.74268l-65.35632,7.92194c-11.79834,1.43011-19.9129,12.56-17.66583,24.23035l12.22278,63.47974c1.05231,1.27618,2.67242,2.48029,4.75519,3.60754v143.8031h8.98199v-140.22675c7.229,2.19983,16.56354,3.90759,26.94604,5.01361v135.21313h8.98206v-134.4231c15.18964,1.05792,31.82721,.88068,47.02344-.83228v135.25537h8.98199v-136.48248c2.71906-.4397,5.36798-.93427,7.92535-1.4884v137.97089h8.98199v-140.27905c4.88519-1.48285,9.26202-3.23651,12.94464-5.28241,33.28632-18.49237-55.74127-31.43701-55.74127-27.73853Z"/><polygon fill="#ffb6b6" points="233.345 466.677 244.414 477.745 259.698 485.651 258.117 499.355 229.129 496.192 225.44 488.814 226.494 482.489 224.385 472.475 233.345 466.677"/><path fill="#2f2e41" d="M256.00875,494.08417l.90514-11.62795,31.24524,14.79028s2.41947,6.85172-5.11493,7.90583c-7.5344,1.05411-57.60467,1.05411-57.60467-1.58117,0-2.63528-1.36951-16.12707-1.36951-16.12707l30.35756,8.74829,1.58117-2.10822Z"/><polygon fill="#ffb6b6" points="193.536 435.935 185.531 449.385 181.627 466.145 167.956 467.983 163.891 439.108 170.135 433.717 176.525 433.183 185.713 428.676 193.536 435.935"/><path fill="#2f2e41" d="M172.54591,464.64304l11.49334-1.98281-6.65046,33.92328s-6.0461,4.03047-8.92107-3.01318c-2.87497-7.04364-15.1908-55.57561-12.63648-56.22381s15.29474-5.29423,15.29474-5.29423l-1.01244,31.57672,2.43237,1.01403Z"/><polygon fill="#ffb6b6" points="158.818 184.249 157.233 216.479 182.594 217.007 182.594 189.281 158.818 184.249"/><polygon points="158.818 184.249 157.233 216.479 182.594 217.007 182.594 189.281 158.818 184.249" opacity=".1"/><path fill="#2f2e41" d="M116.02169,317.39411s-11.62378,30.11616-3.17012,42.26829c8.45366,12.15213,48.08019,19.02073,48.08019,19.02073l16.37896,15.32226,43.325,83.47988,25.36098-5.81189-35.92805-85.5933s-21.13415-34.34299-29.05945-39.09817c-7.92531-4.75518-22.68275-22.60896-22.68275-22.60896l-42.30475-6.97884Z"/><path fill="#2f2e41" d="M187.87779,320.03588l16.27551,11.52601s57.69401,15.42002,39.20163,51.34807c-18.49238,35.92805-45.96677,61.81738-45.96677,61.81738l-24.30427-13.7372,39.09817-54.94878-68.68598-41.73994,44.38171-14.26555Z"/><path id="uuid-8b72ca2c-8770-47cf-940c-27f120eabdaa-416" fill="#ffb6b6" d="M335.81173,276.22389c7.64814,1.53882,13.05361,6.73239,12.07349,11.59956s-7.97387,7.56406-15.62453,6.02367c-3.06457-.5734-5.94726-1.87237-8.40688-3.78824l-32.32316-6.92927,2.77276-12.77513,32.28762,6.1102c3.01024-.81551,6.17204-.89808,9.22071-.24078Z"/><path fill="#6c63ff" d="M181.27337,205.11895h-32.87858l-24.18362,16.37896,2.11341,64.45915s4.419,16.1868-10.56707,31.17287c-8.98201,8.98201-5.81189,14.26555-5.81189,14.26555l53.36372,4.22683,31.9654-9.24619-11.62378-29.05945,2.11341-8.98201s21.6625-15.32226,17.96403-31.17287c-3.69848-15.85061-8.45366-48.60854-8.45366-48.60854l-14.00137-3.4343Z"/><path fill="#6c63ff" d="M258.62675,259.62886l-63.77757-51.11149s-12.41614,3.37342-10.80987,15.07806c1.60627,11.70464,29.91464,41.31048,29.91464,41.31048l48.66556,22.07968,55.72307,2.84701,2.29537-16.29461-62.01119-13.90914Z"/><circle cx="173.876" cy="177.116" r="22.191" fill="#ffb6b6"/><path fill="#2f2e41" d="M167.80035,181.60721s10.56707-10.03872,14.7939-14.7939c4.22683-4.75518,22.19085,7.39695,18.49238-1.58506-3.69848-8.98201-8.98201-11.09543-8.98201-11.09543,0,0-9.51037-19.02073-28.00275-7.92531,0,0,0-11.62378-14.7939-6.8686-14.7939,4.75518-21.6625,48.60854-17.43567,52.83537,4.22683,4.22683,8.45366,7.39695,5.28354,15.32226-3.17012,7.92531,0,43.325,11.62378,48.08019,11.62378,4.75518,13.7372,8.11668,10.56707,15.68212-3.17012,7.56544-11.09543,24.47276,3.69848,20.24593s-1.05671,1.05671,5.28354-12.68049c6.34024-13.7372,21.6625-20.07744,9.51037-32.22957-12.15213-12.15213-11.62378-37.51311-14.26555-40.15488-2.64177-2.64177-7.61791-24.64333-7.61791-24.64333,0,0,8.67462-5.47283,11.84474-.18929Z"/><path fill="#3f3d56" d="M887,506.69981H0v-2H887c.55228,0,1,.44771,1,1h0c0,.55229-.44771,1-1,1Z"/><g><path fill="#fff" d="M426.1224,504.89309H226.30012c-13.22208,0-23.97826-10.75618-23.97826-23.98032V196.12693c0-13.22414,10.75618-23.98032,23.97826-23.98032h199.82228c13.22208,0,23.97826,10.75618,23.97826,23.98032V480.91277c0,13.22414-10.75618,23.98032-23.97826,23.98032Z"/><path fill="#3f3d56" d="M426.12175,507.77203H226.29997c-14.80908,0-26.85742-12.04883-26.85742-26.8584V196.12653c0-14.81055,12.04834-26.85938,26.85742-26.85938h199.82178c14.80957,0,26.85791,12.04883,26.85791,26.85938V480.91364c0,14.80957-12.04834,26.8584-26.85791,26.8584ZM226.29997,171.26715c-13.70654,0-24.85742,11.15186-24.85742,24.85938V480.91364c0,13.70703,11.15088,24.8584,24.85742,24.8584h199.82178c13.70654,0,24.85791-11.15137,24.85791-24.8584V196.12653c0-13.70752-11.15137-24.85938-24.85791-24.85938H226.29997Z"/><path fill="#6c63ff" d="M247.50764,280.71342l156.20489-4.72226c10.84889-.32797,11.88985-17.29799,.94217-16.96702l-156.20489,4.72226c-10.84889,.32797-11.88985,17.29799-.94217,16.96702h0Z"/><path fill="#6c63ff" d="M247.50764,337.3573l156.20489-4.72226c10.84889-.32797,11.88985-17.29799,.94217-16.96702l-156.20489,4.72226c-10.84889,.32797-11.88985,17.29799-.94217,16.96702h0Z"/><path fill="#6c63ff" d="M247.50764,394.00117l156.20489-4.72226c10.84889-.32797,11.88985-17.29799,.94217-16.96702l-156.20489,4.72226c-10.84889,.32797-11.88985,17.29799-.94217,16.96702h0Z"/></g><path id="uuid-0373391a-705f-4801-95e2-9fea66d9d55f-417" fill="#ffb6b6" d="M213.75627,358.77779c5.58996,5.44191,7.31321,12.7373,3.84936,16.29422-3.46385,3.55692-10.80203,2.02821-16.39326-3.41638-2.2633-2.14426-3.98018-4.79935-5.00699-7.74316l-23.39372-23.3567,9.25994-9.22744,23.80822,22.64936c2.97117,.94804,5.67202,2.594,7.87645,4.8001Z"/><path fill="#6c63ff" d="M158.28999,299.95844l-23.77592-78.19635s-12.15213-4.22683-17.43567,6.34024c-5.28354,10.56707,1.36249,50.98613,1.36249,50.98613l27.69697,45.70259,44.38171,33.81464,11.09543-12.15213-43.325-46.49512Z"/></svg>